<svg xmlns="http://www.w3.org/2000/svg" viewBox="0 0 427.32 427.32"><defs><style>.cls-1{fill:#230e9a;}.cls-2{fill:#fff;}.cls-3{fill:#ff6400;}</style></defs><g id="Layer_2" data-name="Layer 2"><g id="Layer_1-2" data-name="Layer 1"><rect id="back" class="cls-1" width="427.32" height="427.32"/><path class="cls-2" d="M348,121.41a109.37,109.37,0,0,0-43.2-40.73Q277.29,66,242.66,66H166.48V296.86h76.18q34.64,0,62.17-14.84A109.89,109.89,0,0,0,348,240.79q15.66-26.39,15.66-60Q363.69,147.47,348,121.41Zm-41.39,97a69.13,69.13,0,0,1-27,25.72q-17.16,9.24-38.59,9.23H213.64V109.53H241q21.44,0,38.59,9.07a68.34,68.34,0,0,1,27,25.4q9.9,16.32,9.89,37.1T306.64,218.37Z"/><path class="cls-3" d="M112.74,259.6a38.53,38.53,0,0,0-35.86-35.86,2.4,2.4,0,0,0-2.58,2.4v9.66a2.41,2.41,0,0,0,2.2,2.4A24.09,24.09,0,0,1,98.28,260a2.41,2.41,0,0,0,2.39,2.21h9.67A2.42,2.42,0,0,0,112.74,259.6Z"/><path class="cls-3" d="M132,259.69a57.73,57.73,0,0,0-55.18-55.18,2.4,2.4,0,0,0-2.49,2.41v9.59a2.4,2.4,0,0,0,2.26,2.4,43.33,43.33,0,0,1,41,41,2.39,2.39,0,0,0,2.4,2.25h9.6A2.39,2.39,0,0,0,132,259.69Z"/><circle class="cls-3" cx="82.7" cy="253.77" r="8.41"/><rect class="cls-3" x="79.22" y="110.37" width="48.06" height="48.06" rx="2.4"/><path class="cls-3" d="M74.42,115.18l-10.5,4.2a2.4,2.4,0,0,0-1.39,3l11.89,36.08Z"/><path class="cls-2" d="M166.3,336.83h7.28v8.58l-3.86,6.25a16.93,16.93,0,0,1,1.86-8,14.25,14.25,0,0,1,5.16-5.58,13.73,13.73,0,0,1,7.35-2,13,13,0,0,1,6.7,1.74,12,12,0,0,1,4.58,4.71,13.83,13.83,0,0,1,1.61,6.7v20.05h-7.6v-18.5a8.35,8.35,0,0,0-.94-4,6.8,6.8,0,0,0-2.58-2.71,7.31,7.31,0,0,0-3.77-1,8.07,8.07,0,0,0-4.06,1.06,7.53,7.53,0,0,0-3,3.13,10.16,10.16,0,0,0-1.1,4.9v17.08H166.3Z"/><path class="cls-2" d="M209.1,367.78a16.86,16.86,0,0,1-6.22-6.13,16.47,16.47,0,0,1-2.29-8.57,17.17,17.17,0,0,1,8.22-14.73,15.6,15.6,0,0,1,8.28-2.29,15.81,15.81,0,0,1,8.32,2.29,16.44,16.44,0,0,1,6,6.15,17.17,17.17,0,0,1,2.16,8.51v.62a4.47,4.47,0,0,1-.06.67v.58a3.59,3.59,0,0,1-.07.65h-27V349.6h22.37L226.31,353a11.1,11.1,0,0,0-1.22-5.22,9.63,9.63,0,0,0-3.36-3.68,8.56,8.56,0,0,0-4.7-1.35,8.34,8.34,0,0,0-4.61,1.35,9.69,9.69,0,0,0-3.32,3.68,11.72,11.72,0,0,0,.06,10.57,9.68,9.68,0,0,0,3.52,3.74,9.55,9.55,0,0,0,5.06,1.35,11.08,11.08,0,0,0,4.86-1.09,14.89,14.89,0,0,0,4.1-2.9l4.7,4.83a18.64,18.64,0,0,1-6.12,4.29,18.36,18.36,0,0,1-7.41,1.51A17.33,17.33,0,0,1,209.1,367.78Z"/><path class="cls-2" d="M233.72,338.83l6.84-2.71L250,361l-2.9.06,9.79-24.24h6.51l9.74,24.24-2.77-.06,9.34-24.89,6.84,2.71-11.67,30.43h-6l-9.79-23.85h2.12l-9.79,23.85h-5.94Z"/><path class="cls-2" d="M294.54,368.74a12.58,12.58,0,0,1-4.67-3.29,9.77,9.77,0,0,1-2.32-4.57l6.51-1.29a5.87,5.87,0,0,0,1.38,2.16,6.3,6.3,0,0,0,2.29,1.42,9.22,9.22,0,0,0,3.1.48,7.91,7.91,0,0,0,4.09-1,3,3,0,0,0,1.64-2.7,2.84,2.84,0,0,0-1.32-2.42,7.72,7.72,0,0,0-4-1.07l-2.45-.12a12.91,12.91,0,0,1-5.77-1.46,9.21,9.21,0,0,1-3.67-3.51,9.64,9.64,0,0,1-1.26-4.9,9.38,9.38,0,0,1,1.68-5.54,10.72,10.72,0,0,1,4.48-3.64,15.58,15.58,0,0,1,11.63-.26,12.66,12.66,0,0,1,4.39,2.8,8.76,8.76,0,0,1,2.38,4.19l-6.38,1.23a4,4,0,0,0-2.13-2.06,8.51,8.51,0,0,0-3.87-.84,7.85,7.85,0,0,0-2.61.42,4.56,4.56,0,0,0-1.9,1.22,3,3,0,0,0-.16,3.64,3.86,3.86,0,0,0,1.61,1.16,7.45,7.45,0,0,0,2.61.52l2.65.13a14.13,14.13,0,0,1,5.89,1.51,9.49,9.49,0,0,1,3.81,3.55,9.83,9.83,0,0,1,1.32,5.12,9.39,9.39,0,0,1-1.64,5.51,10.23,10.23,0,0,1-4.52,3.58A15.91,15.91,0,0,1,301,370,16.1,16.1,0,0,1,294.54,368.74Z"/></g></g></svg>